<?xml version="1.0" encoding="UTF-8" standalone="no"?><svg width="20px" height="16px" viewBox="0 0 20 16" version="1.1" xmlns="http://www.w3.org/2000/svg" xmlns:xlink="http://www.w3.org/1999/xlink" xmlns:sketch="http://www.bohemiancoding.com/sketch/ns">        <title>Imported Layers</title>    <desc>Created with Sketch.</desc>    <defs></defs>    <g id="Page-1" stroke="none" stroke-width="1" fill="none" fill-rule="evenodd" sketch:type="MSPage">        <g id="Artboard-1" sketch:type="MSArtboardGroup" fill="#FFFFFF">            <path d="M20,1.89404884 C19.2641282,2.21530475 18.4733165,2.43249997 17.6432935,2.53007938 C18.4905081,2.03022793 19.1410074,1.23864644 19.447456,0.295402773 C18.6546692,0.758310873 17.7765097,1.09447376 16.8418742,1.27558979 C16.0933465,0.490561602 15.0269578,0 13.8468122,0 C11.5806723,0 9.74344343,1.80856783 9.74344343,4.03913962 C9.74344343,4.35578662 9.77980175,4.66400795 9.84973847,4.95969878 C6.43951864,4.79125726 3.41607228,3.18317732 1.39229672,0.739371105 C1.03910165,1.3359378 0.836753356,2.02979585 0.836753356,2.77003112 C0.836753356,4.17135793 1.56113976,5.40769991 2.66213102,6.13209204 C1.98953875,6.11113587 1.35681627,5.9293717 0.803613885,5.62683951 C0.803321263,5.64376288 0.803248107,5.66061423 0.803248107,5.67760961 C0.803248107,7.63467099 2.21763781,9.26730853 4.09473646,9.63825434 C3.75039321,9.73057599 3.38790739,9.77990652 3.01371667,9.77990652 C2.74933246,9.77990652 2.4922638,9.75462877 2.24170599,9.70746011 C2.76389041,11.3122274 4.27923479,12.4800117 6.07476499,12.5126342 C4.6703976,13.5959458 2.90120341,14.2416982 0.978748308,14.2416982 C0.647573064,14.2416982 0.320933465,14.2226144 0,14.185311 C1.81586744,15.331347 3.97263982,16 6.28984235,16 C13.8372289,16 17.9643732,9.8451515 17.9643732,4.50752081 C17.9643732,4.33245398 17.9604228,4.15825132 17.952522,3.98498485 C18.7540876,3.41549554 19.4498701,2.704066 20,1.89404884 L20,1.89404884 Z" id="Imported-Layers" sketch:type="MSShapeGroup"></path>        </g>    </g></svg>