<?xml version="1.0" encoding="UTF-8" standalone="no"?><svg width="40px" height="40px" viewBox="0 0 40 40" version="1.1" xmlns="http://www.w3.org/2000/svg" xmlns:xlink="http://www.w3.org/1999/xlink">        <title>instagram</title>    <desc>Created with Sketch.</desc>    <defs></defs>    <g id="Page-1" stroke="none" stroke-width="1" fill="none" fill-rule="evenodd">        <g id="Artboard-1">            <g id="instagram">                <rect id="Rectangle-2" fill="#FF8822" x="0" y="0" width="40" height="40"></rect>                <path d="M20,9.34572619 C23.4700714,9.34572619 23.8810675,9.35893254 25.2514325,9.42145635 C26.5185198,9.47928571 27.2066429,9.691 27.6646349,9.8689246 C28.2711984,10.1046786 28.7041706,10.3863452 29.1589127,10.8410873 C29.6136548,11.2958294 29.8953214,11.7288016 30.1310238,12.3353651 C30.309,12.7933571 30.5207143,13.4814802 30.5785437,14.7485159 C30.6410675,16.1189325 30.6542738,16.5299286 30.6542738,20 C30.6542738,23.4700714 30.6410675,23.8810675 30.5785437,25.2514325 C30.5207143,26.5185198 30.309,27.2066429 30.1310238,27.6646349 C29.8953214,28.2711984 29.6136548,28.7041706 29.1589127,29.1589127 C28.7041706,29.6136548 28.2711984,29.8953214 27.6646349,30.1310238 C27.2066429,30.309 26.5185198,30.5207143 25.2514325,30.5785437 C23.8812738,30.6410675 23.4702778,30.6542738 20,30.6542738 C16.5297222,30.6542738 16.1187262,30.6410675 14.7485675,30.5785437 C13.4814802,30.5207143 12.7933571,30.309 12.3354167,30.1310238 C11.7288016,29.8953214 11.2958294,29.6136548 10.8410873,29.1589127 C10.3863452,28.7041706 10.1046786,28.2711984 9.86897619,27.6646349 C9.691,27.2066429 9.47928571,26.5185198 9.42145635,25.2514841 C9.35893254,23.8810675 9.34572619,23.4700714 9.34572619,20 C9.34572619,16.5299286 9.35893254,16.1189325 9.42145635,14.7485675 C9.47928571,13.4814802 9.691,12.7933571 9.86897619,12.3353651 C10.1046786,11.7288016 10.3863452,11.2958294 10.8410873,10.8410873 C11.2958294,10.3863452 11.7288016,10.1046786 12.3354167,9.8689246 C12.7933571,9.691 13.4814802,9.47928571 14.7485159,9.42145635 C16.1189325,9.35893254 16.5299286,9.34572619 20,9.34572619 M20,7.0040754 C16.4705,7.0040754 16.0279841,7.01903571 14.6418333,7.08228175 C13.2585198,7.1454246 12.3138532,7.36508333 11.4871667,7.68636905 C10.6325714,8.0184881 9.90782143,8.46286111 9.18534127,9.18534127 C8.46286111,9.90782143 8.0184881,10.6325714 7.68636905,11.4871667 C7.36508333,12.3138532 7.1454246,13.2585198 7.08228175,14.6418333 C7.01903571,16.0279325 7.00412698,16.4705 7.00412698,20 C7.00412698,23.5295 7.01903571,23.9720675 7.08228175,25.3581667 C7.1454246,26.7414802 7.36508333,27.6861468 7.68636905,28.5128333 C8.0184881,29.367377 8.46286111,30.0921786 9.18534127,30.8146587 C9.90782143,31.5371389 10.6325714,31.9815119 11.4871667,32.313631 C12.3138532,32.6349167 13.2585198,32.8545754 14.6418333,32.9177183 C16.0279841,32.9809643 16.4705,32.995873 20,32.995873 C23.5295,32.995873 23.9720675,32.9809643 25.3581667,32.9177183 C26.7414802,32.8545754 27.6861468,32.6349167 28.5128333,32.313631 C29.3674286,31.9815119 30.0921786,31.5371389 30.8146587,30.8146587 C31.5371389,30.0921786 31.9815119,29.3674286 32.313631,28.5128333 C32.6349167,27.6861468 32.8545754,26.7414802 32.9177183,25.3581667 C32.9809643,23.9720675 32.9959246,23.5295 32.9959246,20 C32.9959246,16.4705 32.9809643,16.0279325 32.9177183,14.6418333 C32.8545754,13.2585198 32.6349167,12.3138532 32.313631,11.4871667 C31.9815119,10.6325714 31.5371389,9.90782143 30.8146587,9.18534127 C30.0921786,8.46286111 29.3674286,8.0184881 28.5128333,7.68636905 C27.6861468,7.36508333 26.7414802,7.1454246 25.3581667,7.08228175 C23.9720675,7.01903571 23.5295,7.0040754 20,7.0040754" id="Fill-1" fill="#FFFFFF"></path>                <path d="M20,13.3264087 C16.3142937,13.3264087 13.3264087,16.3142937 13.3264087,20 C13.3264087,23.6857063 16.3142937,26.6735913 20,26.6735913 C23.6857063,26.6735913 26.6735913,23.6857063 26.6735913,20 C26.6735913,16.3142937 23.6857063,13.3264087 20,13.3264087 L20,13.3264087 Z M20,24.3319921 C17.6075357,24.3319921 15.6680079,22.3924643 15.6680079,20 C15.6680079,17.6075357 17.6075357,15.6680079 20,15.6680079 C22.3924643,15.6680079 24.3319921,17.6075357 24.3319921,20 C24.3319921,22.3924643 22.3924643,24.3319921 20,24.3319921 L20,24.3319921 Z" id="Fill-2" fill="#FFFFFF"></path>                <path d="M28.4967381,13.062746 C28.4967381,13.9240476 27.7985556,14.6222817 26.937254,14.6222817 C26.0759524,14.6222817 25.3777183,13.9240476 25.3777183,13.062746 C25.3777183,12.2014444 26.0759524,11.5032619 26.937254,11.5032619 C27.7985556,11.5032619 28.4967381,12.2014444 28.4967381,13.062746" id="Fill-3" fill="#FFFFFF"></path>            </g>        </g>    </g></svg>