<?xml version="1.0" encoding="utf-8"?><!DOCTYPE svg PUBLIC "-//W3C//DTD SVG 1.1//EN" "http://www.w3.org/Graphics/SVG/1.1/DTD/svg11.dtd"><svg version="1.1" id="Layer_1" xmlns="http://www.w3.org/2000/svg" xmlns:xlink="http://www.w3.org/1999/xlink" x="0px" y="0px" viewBox="0 0 50 50" enable-background="new 0 0 50 50" xml:space="preserve"><path id="twitter-icon_2_" fill="#FFFFFF" d="M41,15c-1.2,0.5-2.4,0.9-3.8,1c1.4-0.8,2.4-2.1,2.9-3.6c-1.3,0.8-2.7,1.3-4.2,1.6c-1.2-1.3-2.9-2.1-4.8-2.1c-4.2,0-7.4,4-6.4,8.1c-5.5-0.3-10.3-2.9-13.5-6.9c-1.7,3-0.9,6.8,2,8.8c-1.1,0-2.1-0.3-3-0.8c-0.1,3,2.1,5.9,5.3,6.5c-0.9,0.3-1.9,0.3-3,0.1c0.8,2.6,3.3,4.5,6.1,4.6C16,34.4,12.5,35.4,9,35c2.9,1.9,6.4,2.9,10.1,2.9c12.2,0,19.1-10.3,18.7-19.5C39,17.5,40.1,16.3,41,15z"/></svg>